<svg width="64" height="64" viewBox="0 0 64 64" fill="none" xmlns="http://www.w3.org/2000/svg">
<path d="M1.77777 37.882C1.77777 30.085 8.09844 23.7643 15.8954 23.7643C23.6924 23.7643 30.0131 30.085 30.0131 37.882V45.7251C30.0131 49.1904 27.2039 51.9996 23.7386 51.9996H15.8954C8.09844 51.9996 1.77777 45.6789 1.77777 37.882Z" fill="url(#paint0_linear_3113_672)"/>
<path d="M33.5408 19.0588C33.5408 15.1603 36.7011 12 40.5996 12C44.4981 12 47.6587 15.1603 47.6587 19.0588V20.0092C47.6587 21.8763 48.8507 23.535 50.6204 24.1302L52.6258 24.8047C58.0933 26.6436 61.776 31.768 61.776 37.5364V37.9676C61.776 45.7175 55.4938 52 47.7435 52H39.8153C36.35 52 33.5408 49.1908 33.5408 45.7255V19.0588Z" fill="url(#paint1_linear_3113_672)"/>
<path d="M59.6031 17.0909C59.1231 17.0909 58.6871 16.9813 58.2942 16.762C57.9102 16.534 57.6049 16.2271 57.3782 15.8412C57.16 15.4553 57.0511 15.0212 57.0511 14.5389C57.0511 14.0565 57.1644 13.6268 57.3911 13.2497C57.6182 12.8638 57.9235 12.5613 58.3075 12.342C58.6911 12.114 59.1231 12 59.6031 12C60.0827 12 60.5147 12.114 60.8987 12.342C61.2827 12.5613 61.5835 12.8638 61.8018 13.2497C62.0284 13.6268 62.1418 14.0565 62.1418 14.5389C62.1418 15.0212 62.0284 15.4553 61.8018 15.8412C61.5835 16.2271 61.2827 16.534 60.8987 16.762C60.5235 16.9813 60.0915 17.0909 59.6031 17.0909ZM59.6031 16.7226C60.0129 16.7226 60.3795 16.6305 60.7022 16.4463C61.0338 16.2534 61.2911 15.9903 61.4747 15.657C61.6662 15.3238 61.7622 14.9511 61.7622 14.5389C61.7622 14.1267 61.6662 13.7584 61.4747 13.4339C61.2911 13.1006 61.0338 12.8419 60.7022 12.6577C60.3795 12.4648 60.0129 12.3683 59.6031 12.3683C59.1929 12.3683 58.8222 12.4648 58.4907 12.6577C58.1675 12.8419 57.9102 13.1006 57.7182 13.4339C57.5351 13.7584 57.4435 14.1267 57.4435 14.5389C57.4435 14.9511 57.5351 15.3238 57.7182 15.657C57.9102 15.9903 58.1675 16.2534 58.4907 16.4463C58.8222 16.6305 59.1929 16.7226 59.6031 16.7226ZM59.0662 15.9333H58.6609V13.0918H59.6813C59.9867 13.0918 60.2311 13.1708 60.4142 13.3286C60.5978 13.4777 60.6893 13.6882 60.6893 13.9601C60.6893 14.1442 60.6413 14.3065 60.5453 14.4468C60.4493 14.5871 60.3009 14.6924 60.1004 14.7625L60.7418 15.9333H60.2835L59.7075 14.8546H59.0662V15.9333ZM60.2573 13.9732C60.2573 13.64 60.0609 13.4733 59.6684 13.4733H59.0662V14.4731H59.6684C59.8515 14.4731 59.9955 14.4336 60.1004 14.3547C60.2049 14.267 60.2573 14.1398 60.2573 13.9732Z" fill="url(#paint2_linear_3113_672)"/>
<defs>
<linearGradient id="paint0_linear_3113_672" x1="32" y1="12" x2="32" y2="52" gradientUnits="userSpaceOnUse">
<stop stop-color="#D743C8"/>
<stop offset="1" stop-color="#7435DB"/>
</linearGradient>
<linearGradient id="paint1_linear_3113_672" x1="32" y1="12" x2="32" y2="52" gradientUnits="userSpaceOnUse">
<stop stop-color="#D743C8"/>
<stop offset="1" stop-color="#7435DB"/>
</linearGradient>
<linearGradient id="paint2_linear_3113_672" x1="32" y1="12" x2="32" y2="52" gradientUnits="userSpaceOnUse">
<stop stop-color="#D743C8"/>
<stop offset="1" stop-color="#7435DB"/>
</linearGradient>
</defs>
</svg>
